<svg width="13" height="13" viewBox="0 0 13 13" fill="none" xmlns="http://www.w3.org/2000/svg">
<path d="M12.8736 5.22697H12.35V5.2H6.5V7.8H10.1735C9.63755 9.31352 8.19747 10.4 6.5 10.4C4.34622 10.4 2.6 8.65377 2.6 6.5C2.6 4.34622 4.34622 2.6 6.5 2.6C7.49417 2.6 8.39865 2.97505 9.08733 3.58767L10.9258 1.74915C9.76495 0.667225 8.2121 0 6.5 0C2.91037 0 0 2.91037 0 6.5C0 10.0896 2.91037 13 6.5 13C10.0896 13 13 10.0896 13 6.5C13 6.06417 12.9551 5.63875 12.8736 5.22697Z" fill="#FFC107"/>
<path d="M0.74945 3.47457L2.88502 5.04075C3.46287 3.6101 4.86233 2.6 6.5 2.6C7.49417 2.6 8.39865 2.97505 9.08733 3.58767L10.9258 1.74915C9.76495 0.667225 8.2121 0 6.5 0C4.00335 0 1.8382 1.40952 0.74945 3.47457Z" fill="#FF3D00"/>
<path d="M6.5 13C8.17895 13 9.7045 12.3575 10.8579 11.3126L8.84618 9.61025C8.17165 10.1232 7.34743 10.4007 6.5 10.4C4.80935 10.4 3.37383 9.32198 2.83303 7.81755L0.713377 9.45068C1.78913 11.5557 3.97378 13 6.5 13Z" fill="#4CAF50"/>
<path d="M12.8736 5.22697H12.35V5.2H6.5V7.8H10.1735C9.91712 8.52033 9.45534 9.14978 8.8452 9.61057L8.84617 9.60992L10.8579 11.3123C10.7156 11.4416 13 9.75 13 6.5C13 6.06417 12.9551 5.63875 12.8736 5.22697Z" fill="#1976D2"/>
</svg>
