<svg width="40" height="40" viewBox="0 0 40 40" fill="none" xmlns="http://www.w3.org/2000/svg">
<path d="M38.7527 21.2446C38.5878 21.2455 38.4244 21.214 38.2718 21.1518C38.1192 21.0896 37.9804 20.9979 37.8634 20.882L19.9653 3.00185L2.06718 20.882C1.82758 21.0868 1.51937 21.1939 1.20415 21.1817C0.888929 21.1696 0.589909 21.0391 0.366847 20.8164C0.143785 20.5937 0.0131098 20.2952 0.000934086 19.9806C-0.0112416 19.6659 0.0959794 19.3582 0.301171 19.119L19.0886 0.363595C19.3232 0.130715 19.6407 0 19.9716 0C20.3025 0 20.6199 0.130715 20.8546 0.363595L39.642 19.119C39.8143 19.2945 39.931 19.5169 39.9775 19.7582C40.024 19.9996 39.9981 20.2493 39.9032 20.4761C39.8084 20.7029 39.6486 20.8968 39.444 21.0335C39.2393 21.1701 38.9989 21.2436 38.7527 21.2446V21.2446Z" fill="#1976D2"/>
<path d="M19.9652 7.22808L4.93533 22.2824V37.4993C4.93533 38.1625 5.19925 38.7986 5.66903 39.2676C6.1388 39.7365 6.77595 40 7.44032 40H16.2078V27.4964H23.7227V40H32.4902C33.1545 40 33.7917 39.7365 34.2615 39.2676C34.7312 38.7986 34.9951 38.1625 34.9951 37.4993V22.1949L19.9652 7.22808Z" fill="#1976D2"/>
</svg>
