<svg width="40" height="40" viewBox="0 0 40 40" fill="none" xmlns="http://www.w3.org/2000/svg">
<path d="M23.9765 37.8948C21.4588 34.5895 18.8235 30.2316 18.8235 26.3158C18.8235 22.4632 21.0824 18.9474 24.4706 16.8421H23.5294V12.6316H28.2353V15.2211C29.4118 14.9263 30.5882 14.7369 31.7647 14.7369C32.1647 14.7369 32.5647 14.7369 32.9412 14.8V7.62939e-06H0V37.8948H14.1176V30.5263H18.8235V37.8948H23.9765ZM23.5294 4.21053H28.2353V8.42106H23.5294V4.21053ZM9.41177 33.6842H4.70588V29.4737H9.41177V33.6842ZM9.41177 25.2632H4.70588V21.0526H9.41177V25.2632ZM9.41177 16.8421H4.70588V12.6316H9.41177V16.8421ZM9.41177 8.42106H4.70588V4.21053H9.41177V8.42106ZM14.1176 4.21053H18.8235V8.42106H14.1176V4.21053ZM14.1176 12.6316H18.8235V16.8421H14.1176V12.6316ZM14.1176 25.2632V21.0526H18.8235V25.2632H14.1176ZM31.7647 18.9474C27.2941 18.9474 23.5294 22.3369 23.5294 26.3158C23.5294 31.8105 31.7647 40 31.7647 40C31.7647 40 40 31.8105 40 26.3158C40 22.3369 36.2353 18.9474 31.7647 18.9474ZM31.7647 29.0737C30.1176 29.0737 28.9412 27.8105 28.9412 26.5474C28.9412 25.0737 30.3529 24.0211 31.7647 24.0211C33.1765 24.0211 34.5882 25.2632 34.5882 26.5474C34.8235 27.8105 33.4118 29.0737 31.7647 29.0737Z" fill="#1976D2"/>
</svg>
