<svg width="16" height="16" viewBox="0 0 16 16" fill="none" xmlns="http://www.w3.org/2000/svg">
<path fill-rule="evenodd" clip-rule="evenodd" d="M12.953 12.938H3.04601V3.022H12.953V12.938ZM3.96301 12.062H12.098V3.833H3.96301V12.062V12.062Z" fill="black"/>
<path fill-rule="evenodd" clip-rule="evenodd" d="M12 0H12.959V1.943H12V0Z" fill="black"/>
<path fill-rule="evenodd" clip-rule="evenodd" d="M3 0H3.959V1.984H3V0Z" fill="black"/>
<path fill-rule="evenodd" clip-rule="evenodd" d="M12 14H12.938V15.922H12V14Z" fill="black"/>
<path fill-rule="evenodd" clip-rule="evenodd" d="M3 14H3.959V15.984H3V14Z" fill="black"/>
<path fill-rule="evenodd" clip-rule="evenodd" d="M14 12H15.875V12.994H14V12Z" fill="black"/>
<path fill-rule="evenodd" clip-rule="evenodd" d="M0 12H1.855V12.918H0V12Z" fill="black"/>
<path fill-rule="evenodd" clip-rule="evenodd" d="M14 3H15.98V3.938H14V3Z" fill="black"/>
<path fill-rule="evenodd" clip-rule="evenodd" d="M0 3H1.938V3.957H0V3Z" fill="black"/>
</svg>
