<svg width="15" height="12" viewBox="0 0 15 12" fill="none" xmlns="http://www.w3.org/2000/svg">
<path d="M7.02504 7.00961L6.27969 7.75496L7.02344 9.24246L7.75522 8.47002L7.02504 7.00961V7.00961Z" fill="black"/>
<path d="M7.49931 10.1942L8.19616 11.5879L8.92797 10.8155L8.23109 9.42175L7.49931 10.1942V10.1942Z" fill="black"/>
<path d="M13.2164 4.15942L12.4937 4.9223L13.882 5.58624L14.6047 4.82336L13.2164 4.15942V4.15942Z" fill="black"/>
<path d="M10.2063 3.82831L11.5458 4.4689L12.2685 3.70606L10.9562 3.07843L10.2063 3.82831Z" fill="black"/>
<path d="M9.11829 8.48525L10.0096 9.67372L10.7073 8.93731L9.81594 7.74884L9.11829 8.48525Z" fill="black"/>
<path d="M9.20728 6.93732L8.30303 5.73163L7.58875 6.44591L8.50962 7.67372L9.20728 6.93732V6.93732Z" fill="black"/>
<path d="M8.89822 5.13643L10.0446 6.05352L10.7347 5.32499L9.60969 4.42496L8.89822 5.13643V5.13643Z" fill="black"/>
<path d="M10.8282 6.6804L11.9757 7.59844L12.6658 6.8699L11.5183 5.9519L10.8282 6.6804V6.6804Z" fill="black"/>
<path d="M10.3965 0.974017L9.57647 1.79399L8.80403 1.02155C8.48016 0.697677 8.09567 0.440769 7.67251 0.265492C7.24936 0.0902142 6.79582 0 6.3378 0C5.87977 0 5.42624 0.0902142 5.00308 0.265492C4.57992 0.440769 4.19543 0.697677 3.87156 1.02155C3.86087 1.0322 3.85053 1.04308 3.84003 1.05386C3.47512 0.796788 3.04661 0.644888 2.60127 0.61474C2.15592 0.584591 1.71085 0.677351 1.31462 0.882898C0.918399 1.08844 0.586247 1.39888 0.354418 1.78032C0.122588 2.16176 -1.10672e-05 2.59956 7.49323e-10 3.04592V10.5775H1V3.04592C0.999994 2.78405 1.07156 2.52715 1.20697 2.303C1.34238 2.07885 1.53648 1.89597 1.76829 1.77413C2.0001 1.65229 2.2608 1.59613 2.52221 1.61171C2.78363 1.6273 3.03581 1.71403 3.2515 1.86255C2.90554 2.52165 2.77911 3.27401 2.89065 4.00998C3.00218 4.74596 3.34585 5.42708 3.87156 5.95408L4.64397 6.72649L3.89647 7.47402L4.52147 8.09902L11.0215 1.59902L10.3965 0.974017ZM5.28144 5.94977L4.57866 5.24699C4.11663 4.7795 3.85838 4.14817 3.8603 3.49089C3.86223 2.83362 4.12418 2.20382 4.58893 1.73904C5.05369 1.27427 5.68348 1.0123 6.34076 1.01035C6.99803 1.0084 7.62937 1.26663 8.09688 1.72864L8.79966 2.43145L5.28144 5.94977Z" fill="black"/>
</svg>
